<?xml version="1.0" encoding="utf-8" ?>
<svg xmlns="http://www.w3.org/2000/svg" xmlns:xlink="http://www.w3.org/1999/xlink" width="181" height="101">
	<defs>
		<clipPath id="clip_0">
			<rect x="-162" y="-1235" width="1440" height="5519" clip-rule="evenodd"/>
		</clipPath>
	</defs>
	<g clip-path="url(#clip_0)">
		<path fill="rgb(255,255,255)" stroke="none" d="M157.273 58.7071C157.273 41.6492 143.5 27.8099 126.523 27.8099C121.481 27.8099 116.736 29.0615 112.524 31.219C107.328 13.1957 90.7906 0 71.1804 0C47.3943 0 28.1163 19.3704 28.1163 43.2585C28.1163 49.4212 29.4094 55.274 31.7227 60.5666C29.2077 59.6726 26.5266 59.1481 23.7268 59.1481C10.6177 59.1481 0 70.7703 0 83.9422C0 90.1645 2.39641 95.5167 6.28761 101L177.394 101C179.659 95.5167 181 92.1075 181 87.4706C181 74.3106 170.37 62.6884 157.273 62.6884C157.166 61.3891 157.273 60.066 157.273 58.7071Z"/>
	</g>
</svg>
