<?xml version="1.0" encoding="UTF-8"?>
<svg width="99px" height="99px" viewBox="0 0 99 99" version="1.1" xmlns="http://www.w3.org/2000/svg" xmlns:xlink="http://www.w3.org/1999/xlink">
    <!-- Generator: Sketch 48.2 (47327) - http://www.bohemiancoding.com/sketch -->
    <title>Group 9</title>
    <desc>Created with Sketch.</desc>
    <defs></defs>
    <g id="Desktop" stroke="none" stroke-width="1" fill="none" fill-rule="evenodd" transform="translate(-658.000000, -3180.000000)">
        <g id="OFFER" transform="translate(-15.000000, 2813.000000)">
            <g id="item-1-copy" transform="translate(566.000000, 367.000000)">
                <g id="Group-9" transform="translate(107.000000, 0.000000)">
                    <circle id="Oval" fill="#4FB6C0" cx="49.5" cy="49.5" r="49.5"></circle>
                    <path d="M77.125261,26.8956159 C78.2108614,26.8956159 79.1503092,27.2922716 79.9436326,28.085595 C80.7369559,28.8789184 81.1336117,29.8183662 81.1336117,30.9039666 L81.1336117,72.9916493 C81.1336117,74.0772497 80.7369559,75.0166975 79.9436326,75.8100209 C79.1503092,76.6033443 78.2108614,77 77.125261,77 L21.0083507,77 C19.9227503,77 18.9833025,76.6033443 18.1899791,75.8100209 C17.3966557,75.0166975 17,74.0772497 17,72.9916493 L17,30.9039666 C17,29.8183662 17.3966557,28.8789184 18.1899791,28.085595 C18.9833025,27.2922716 19.9227503,26.8956159 21.0083507,26.8956159 L37.0417537,26.8956159 L37.0417537,23.0125261 C37.0417537,21.3841255 37.626299,19.9749538 38.7954071,18.7849687 C39.9645152,17.5949836 41.3841253,17 43.0542797,17 L55.0793319,17 C56.7494864,17 58.1690965,17.5949836 59.3382046,18.7849687 C60.5073127,19.9749538 61.091858,21.3841255 61.091858,23.0125261 L61.091858,26.8956159 L77.125261,26.8956159 Z M41.0501044,23.0125261 L41.0501044,26.8956159 L57.0835073,26.8956159 L57.0835073,23.0125261 C57.0835073,22.4697259 56.8956177,22.000002 56.519833,21.6033403 C56.1440482,21.2066786 55.663886,21.0083507 55.0793319,21.0083507 L43.0542797,21.0083507 C42.5114795,21.0083507 42.0417556,21.2066786 41.6450939,21.6033403 C41.2484323,22.000002 41.0501044,22.4697259 41.0501044,23.0125261 Z M21.0083507,30.9039666 L21.0083507,44.9958246 L43.0542797,44.9958246 L43.0542797,42.9290188 C43.0542797,41.8434184 43.4404972,40.9039706 44.2129436,40.1106472 C44.9853901,39.3173238 45.9352762,38.9206681 47.0626305,38.9206681 L51.0709812,38.9206681 C52.1565816,38.9206681 53.0960294,39.3173238 53.8893528,40.1106472 C54.6826762,40.9039706 55.0793319,41.8434184 55.0793319,42.9290188 L55.0793319,44.9958246 L77.125261,44.9958246 L77.125261,30.9039666 L21.0083507,30.9039666 Z M51.0709812,53.0125261 L51.0709812,42.9290188 L47.0626305,42.9290188 L47.0626305,53.0125261 L51.0709812,53.0125261 Z M21.0083507,72.9916493 L77.125261,72.9916493 L77.125261,49.0041754 L55.0793319,49.0041754 L55.0793319,53.0125261 C55.0793319,54.1398804 54.6826762,55.0897665 53.8893528,55.8622129 C53.0960294,56.6346594 52.1565816,57.0208768 51.0709812,57.0208768 L47.0626305,57.0208768 C45.9352762,57.0208768 44.9853901,56.6346594 44.2129436,55.8622129 C43.4404972,55.0897665 43.0542797,54.1398804 43.0542797,53.0125261 L43.0542797,49.0041754 L21.0083507,49.0041754 L21.0083507,72.9916493 Z" id="Briefcase---simple-line-icons" fill="#EDF2F3"></path>
                </g>
            </g>
        </g>
    </g>
</svg>