<?xml version="1.0" encoding="UTF-8"?>
<svg width="99px" height="99px" viewBox="0 0 99 99" version="1.1" xmlns="http://www.w3.org/2000/svg" xmlns:xlink="http://www.w3.org/1999/xlink">
    <!-- Generator: Sketch 48.2 (47327) - http://www.bohemiancoding.com/sketch -->
    <title>Group 10</title>
    <desc>Created with Sketch.</desc>
    <defs></defs>
    <g id="Desktop" stroke="none" stroke-width="1" fill="none" fill-rule="evenodd" transform="translate(-306.000000, -3180.000000)">
        <g id="OFFER" transform="translate(-15.000000, 2813.000000)">
            <g id="item-1" transform="translate(214.000000, 367.000000)">
                <g id="Group-10" transform="translate(107.000000, 0.000000)">
                    <circle id="Oval" fill="#4FB6C0" cx="49.5" cy="49.5" r="49.5"></circle>
                    <path d="M46.6066535,83 C42.7318788,83 39.158529,82.364977 35.886497,81.0949119 C32.614465,79.8248469 29.8052954,78.0489351 27.4589041,75.7671233 C25.1125127,73.4853115 23.2827854,70.7730099 21.9696673,67.6301371 C20.6565492,64.4872642 20,61.0645979 20,57.3620354 C20,55.3815949 20.2475513,53.4119473 20.7426614,51.4530334 C21.2377715,49.4941195 21.7866897,47.7182077 22.3894325,46.1252448 C22.9921752,44.5322819 23.5518565,43.2299465 24.0684931,42.2181998 C24.5851298,41.2064531 24.8864966,40.6575349 24.9726027,40.5714288 C25.1448149,40.1839513 25.4246556,39.9041107 25.812133,39.7318985 C26.1996105,39.5596862 26.5870822,39.4951076 26.9745597,39.5381607 C27.4050902,39.5812137 27.7817987,39.7426603 28.1046966,40.0225051 C28.4275945,40.3023499 28.6320935,40.6360061 28.7181996,41.0234836 C28.7612526,41.0665366 29.0626195,41.9921634 29.6223092,43.8003916 C30.1819988,45.6086198 30.8708373,47.1800326 31.6888453,48.5146773 C32.2915881,49.4187914 32.8835587,50.1937347 33.4647749,50.8395305 C34.0459911,51.4853263 34.6594879,52.0234814 35.3052837,52.4540119 C34.8747532,50.5596776 34.5518601,48.2563738 34.3365948,45.5440315 C34.1213296,42.8316892 34.2935392,40.0117565 34.8532289,37.084149 C35.5851308,33.0802151 36.8121244,29.797469 38.5342465,27.2358124 C40.2563686,24.6741558 42.0215173,22.6399296 43.8297455,21.1330727 C45.6379737,19.6262159 47.2524389,18.582195 48.6731897,18.0009788 C50.0939404,17.4197626 50.8688837,17.1076326 50.9980429,17.0645796 C51.3424673,16.9784735 51.6868866,16.9784735 52.031311,17.0645796 C52.3757354,17.1506857 52.6986285,17.3013691 52.9999998,17.5166344 C53.2583182,17.7749527 53.4412909,18.0763195 53.5489235,18.420744 C53.6565561,18.7651684 53.6673192,19.1095876 53.5812131,19.4540121 L53.3228961,21.3913897 C53.1506839,22.6829813 53.0753422,24.340499 53.0968687,26.3639924 C53.1183952,28.3874859 53.3228942,30.6262111 53.7103717,33.0802351 C54.0978491,35.5342591 54.82974,37.9667201 55.9060664,40.377691 C56.1213316,40.8082215 56.368883,41.2710349 56.6487278,41.766145 C56.9285726,42.2612551 57.2191764,42.7671209 57.5205478,43.2837575 C57.6066539,42.5949087 57.7142849,41.884544 57.843444,41.1526421 C57.9726032,40.4207402 58.1448128,39.6888493 58.3600781,38.9569474 C59.135033,36.1154459 60.3082111,34.1350352 61.8796475,33.0156558 C63.451084,31.8962765 64.2798428,31.315069 64.3659489,31.2720159 C64.7103733,31.0998037 65.0655557,31.0352251 65.4315066,31.0782781 C65.7974576,31.1213312 66.1311137,31.2720146 66.4324851,31.5303329 C66.7338565,31.7455982 66.9598816,32.0362019 67.1105673,32.4021529 C67.261253,32.7681038 67.2935423,33.1448124 67.2074362,33.5322899 C67.2074362,33.618396 67.2397255,34.5332596 67.3043051,36.2769083 C67.3688846,38.0205569 68.2406959,40.2700451 69.9197649,43.0254405 C71.3835687,45.4794645 72.3845372,47.7074266 72.9227003,49.7093935 C73.4608635,51.7113605 73.729941,54.2622156 73.729941,57.3620354 C73.729941,61.0645979 73.0518656,64.4872642 71.6956945,67.6301371 C70.3395233,70.7730099 68.4559805,73.4853115 66.0450096,75.7671233 C63.6340386,78.0489351 60.7818167,79.8248469 57.4882581,81.0949119 C54.1946996,82.364977 50.5675343,83 46.6066535,83 Z M26.4579256,47.1585129 C25.8982359,48.5792636 25.3708439,50.1937289 24.8757338,52.0019571 C24.3806237,53.8101853 24.1330724,55.575334 24.1330724,57.2974561 C24.1330724,60.4403289 24.6819906,63.3248402 25.7798434,65.9510764 C26.8776963,68.5773126 28.4275829,70.8483271 30.4295499,72.7641879 C32.4315168,74.6800488 34.8101623,76.1761199 37.5655576,77.2524462 C40.320953,78.3287725 43.3346215,78.8669276 46.6066535,78.8669276 C49.9647916,78.8669276 53.0430387,78.3287725 55.8414871,77.2524462 C58.6399355,76.1761199 61.0616334,74.6800488 63.1066534,72.7641879 C65.1516734,70.8483271 66.7446125,68.5773126 67.8855184,65.9510764 C69.0264243,63.3248402 69.5968686,60.4403289 69.5968686,57.2974561 C69.5968686,54.6281668 69.3816066,52.4755465 68.9510761,50.8395305 C68.5205456,49.2035145 67.6594974,47.3092086 66.3679058,45.156556 C65.5068448,43.6927522 64.8395325,42.3366014 64.3659489,41.0880628 C63.8923653,39.8395243 63.5694723,38.6986355 63.3972601,37.6653623 C63.1819948,37.9667336 62.9774959,38.321916 62.7837571,38.73092 C62.5900184,39.139924 62.4285719,39.6027374 62.2994127,40.119374 C61.69667,42.3150797 61.3953031,44.4569369 61.3953031,46.54501 L61.3953031,49.6771039 C61.3953031,50.1506875 61.276909,50.5812115 61.0401172,50.968689 C60.8033254,51.3561665 60.4481431,51.6360071 59.9745595,51.8082193 C59.544029,51.9373785 59.1135049,51.9373785 58.6829744,51.8082193 C58.2524438,51.6790602 57.9080246,51.4207457 57.6497063,51.0332683 C57.5636002,50.9041091 56.8317093,49.8170358 55.4540116,47.7720158 C54.0763139,45.7269958 52.9784775,43.843453 52.1604695,42.1213309 C51.3424615,40.2700497 50.7074385,38.4295593 50.2553815,36.5998045 C49.8033244,34.7700498 49.4804314,32.994138 49.2866926,31.2720159 C49.0929539,29.5498938 49.0068491,27.9354285 49.0283756,26.4285717 C49.0499021,24.9217149 49.1037176,23.5870903 49.1898237,22.4246578 C47.5107547,23.414878 45.5841595,25.104685 43.4099803,27.4941294 C41.2358012,29.8835739 39.73973,33.3385295 38.921722,37.8591 C38.4911915,40.0548057 38.329745,42.2074261 38.4373776,44.3170256 C38.5450102,46.4266252 38.7495092,48.2994049 39.0508805,49.9354209 C39.3522519,51.5714369 39.6643819,52.9060615 39.9872797,53.9393348 L40.4716242,55.4892369 C40.6007833,55.8336613 40.6330726,56.1996068 40.5684931,56.5870843 C40.5039135,56.9745618 40.3424669,57.318981 40.0841486,57.6203524 C39.8258303,57.8786707 39.5137004,58.0724065 39.1477494,58.2015657 C38.7817985,58.3307248 38.4266161,58.352251 38.0821917,58.2661449 C37.9530325,58.2230919 36.7475651,57.6956999 34.4657534,56.6839532 C32.1839416,55.6722064 30.0958998,53.6810326 28.2015655,50.710372 C27.9001941,50.1937353 27.5988273,49.623291 27.2974559,48.9990217 C26.9960846,48.3747524 26.7162439,47.7612556 26.4579256,47.1585129 Z" id="Fire---simple-line-icons" fill="#EDF2F3"></path>
                </g>
            </g>
        </g>
    </g>
</svg>