<?xml version="1.0" encoding="UTF-8"?>
<svg width="99px" height="99px" viewBox="0 0 99 99" version="1.1" xmlns="http://www.w3.org/2000/svg" xmlns:xlink="http://www.w3.org/1999/xlink">
    <!-- Generator: Sketch 48.2 (47327) - http://www.bohemiancoding.com/sketch -->
    <title>Group 11</title>
    <desc>Created with Sketch.</desc>
    <defs></defs>
    <g id="Desktop" stroke="none" stroke-width="1" fill="none" fill-rule="evenodd" transform="translate(-995.000000, -3179.000000)">
        <g id="OFFER" transform="translate(-15.000000, 2813.000000)">
            <g id="item-1-copy-2" transform="translate(914.000000, 366.000000)">
                <g id="Group-11" transform="translate(96.000000, 0.000000)">
                    <circle id="Oval" fill="#4FB6C0" cx="49.5" cy="49.5" r="49.5"></circle>
                    <path d="M80.2701613,36.2096774 C80.4314524,36.4516141 80.5322579,36.7338694 80.5725806,37.0564516 C80.6129034,37.3790339 80.5927423,37.6814502 80.5120968,37.9637097 L71.2580645,65.1814516 C71.1370962,65.5443567 70.9052436,65.846773 70.5625,66.0887097 C70.2197564,66.3306464 69.8467762,66.4516129 69.4435484,66.4516129 L43.3145161,66.4516129 C42.9112883,66.4516129 42.5383082,66.3205658 42.1955645,66.0584677 C41.8528209,65.7963697 41.6209683,65.4637117 41.5,65.0604839 L30.7943548,25.7459677 C30.5120954,24.778221 30.209679,24.2137105 29.8870968,24.0524194 C29.5645145,23.8911282 29.3225815,23.8104839 29.1612903,23.8104839 L20.875,23.8104839 C20.3508038,23.8104839 19.9072599,23.6290341 19.5443548,23.266129 C19.1814498,22.903224 19,22.45968 19,21.9354839 C19,21.3709649 19.1814498,20.9072599 19.5443548,20.5443548 C19.9072599,20.1814498 20.3508038,20 20.875,20 L29.1612903,20 C29.7661321,20 30.65322,20.2520136 31.8225806,20.7560484 C32.9919413,21.2600832 33.8790292,22.5604734 34.483871,24.6572581 L37.6290323,35.3629032 L42.5887097,35.3629032 L54.7459677,24.8387097 C55.5121006,24.0725768 56.4294301,23.6895161 57.4979839,23.6895161 C58.5665376,23.6895161 59.4838671,24.0725768 60.25,24.8387097 L72.6491935,35.3629032 L78.6975806,35.3629032 C78.9798401,35.3629032 79.2620954,35.4435476 79.5443548,35.6048387 C79.8266143,35.7661298 80.0685474,35.9677407 80.2701613,36.2096774 Z M57.5282258,27.5604839 L48.2741935,35.4233871 L66.7217742,35.4233871 L57.5282258,27.5604839 Z M68.1129032,62.5806452 L75.9153226,39.233871 L38.6572581,39.233871 L44.8266129,62.5806452 L68.1129032,62.5806452 Z M64.3024194,70.3225806 C65.6330712,70.3225806 66.7721727,70.7963662 67.7197581,71.7439516 C68.6673434,72.691537 69.141129,73.8306385 69.141129,75.1612903 C69.141129,76.4919421 68.6673434,77.6310436 67.7197581,78.578629 C66.7721727,79.5262144 65.6330712,80 64.3024194,80 C62.9717675,80 61.832666,79.5262144 60.8850806,78.578629 C59.9374953,77.6310436 59.4637097,76.4919421 59.4637097,75.1612903 C59.4637097,73.8306385 59.9374953,72.691537 60.8850806,71.7439516 C61.832666,70.7963662 62.9717675,70.3225806 64.3024194,70.3225806 Z M46.8830645,70.3225806 C48.2137163,70.3225806 49.3528178,70.7963662 50.3004032,71.7439516 C51.2479886,72.691537 51.7217742,73.8306385 51.7217742,75.1612903 C51.7217742,76.4919421 51.2479886,77.6310436 50.3004032,78.578629 C49.3528178,79.5262144 48.2137163,80 46.8830645,80 C45.5524127,80 44.4133112,79.5262144 43.4657258,78.578629 C42.5181404,77.6310436 42.0443548,76.4919421 42.0443548,75.1612903 C42.0443548,73.8306385 42.5181404,72.691537 43.4657258,71.7439516 C44.4133112,70.7963662 45.5524127,70.3225806 46.8830645,70.3225806 Z" id="basket-loaded---simple-line-icons" fill="#EDF2F3"></path>
                </g>
            </g>
        </g>
    </g>
</svg>