<?xml version="1.0" encoding="UTF-8"?>
<svg width="217px" height="82px" viewBox="0 0 217 82" version="1.1" xmlns="http://www.w3.org/2000/svg" xmlns:xlink="http://www.w3.org/1999/xlink">
    <!-- Generator: Sketch 48.2 (47327) - http://www.bohemiancoding.com/sketch -->
    <title>logo</title>
    <desc>Created with Sketch.</desc>
    <defs>
        <polygon id="path-1" points="0.25936305 0.221022016 21.0181015 0.221022016 21.0181015 27.1184408 0.25936305 27.1184408"></polygon>
        <polygon id="path-3" points="0.165119276 0.221095052 18.3177054 0.221095052 18.3177054 27.1184408 0.165119276 27.1184408"></polygon>
        <polygon id="path-5" points="0 0.455472727 39.9074074 0.455472727 39.9074074 40.7098691 0 40.7098691"></polygon>
    </defs>
    <g id="Desktop" stroke="none" stroke-width="1" fill="none" fill-rule="evenodd" transform="translate(-178.000000, -5268.000000)">
        <g id="logo" transform="translate(178.000000, 5268.000000)">
            <g id="Group" transform="translate(27.000000, 25.000000)">
                <path d="M5.54543441,17.9077276 L12.9854512,17.9077276 C15.0388655,17.9077276 16.582346,17.355319 17.6174127,16.2505019 C18.6524794,15.146451 19.1700127,13.7428276 19.1700127,12.0403978 C19.1700127,10.3379681 18.6524794,8.91902131 17.6174127,7.78432356 C16.582346,6.64885964 15.0388655,6.08112768 12.9854512,6.08112768 L5.54543441,6.08112768 L5.54543441,17.9077276 Z M5.54543441,22.3936529 L5.54543441,35.0944528 L0,35.0944528 L0,1.5952024 L12.9854512,1.5952024 C16.6515024,1.5952024 19.5233945,2.5498502 21.6003676,4.45914581 C23.6765807,6.36844142 24.7154472,8.88071281 24.7154472,11.9944276 C24.7154472,15.1387893 23.6765807,17.6579562 21.6003676,19.5519284 C19.5233945,21.447433 16.6515024,22.3936529 12.9854512,22.3936529 L5.54543441,22.3936529 Z" id="Fill-1" fill="#4FB6C0"></path>
                <path d="M41.0762813,15.1063652 L38.8136811,15.0138171 C37.7834482,15.0138171 36.9241963,15.2451875 36.2359254,15.7094707 C35.5469299,16.1714402 35.0137011,16.8285321 34.6369633,17.6768902 L34.6369633,35.0944528 L29.3495935,35.0944528 L29.3495935,10.0347264 L34.1798065,10.0347264 L34.5275644,13.6710976 C35.1223754,12.3900769 35.8874429,11.3867007 36.8234914,10.6594264 C37.7588154,9.9344659 38.835416,9.57121439 40.0532933,9.57121439 C40.3727959,9.57121439 40.6698392,9.5982076 40.9458721,9.65296526 C41.2211804,9.70695169 41.4747539,9.77250663 41.7073171,9.84963009 L41.0762813,15.1063652 Z" id="Fill-3" fill="#4FB6C0"></path>
                <g id="Group-7" transform="translate(43.252033, 9.571214)">
                    <mask id="mask-2" fill="white">
                        <use xlink:href="#path-1"></use>
                    </mask>
                    <g id="Clip-6"></g>
                    <path d="M10.8971259,4.89192744 C9.55332997,4.89192744 8.44816597,5.4630099 7.58237959,6.60357961 C6.71659322,7.74654213 6.17892571,9.19498591 5.97086852,10.9513037 L6.01486627,11.0709439 L15.6220376,11.0709439 L15.6220376,10.472743 C15.6220376,8.82808936 15.2297864,7.48572654 14.4460297,6.44804738 C13.6622731,5.41036822 12.478808,4.89192744 10.8971259,4.89192744 M11.5242803,27.1186801 C8.08947239,27.1186801 5.35415419,25.9174927 3.31608859,23.5143202 C1.27876871,21.1103502 0.25936305,18.0252288 0.25936305,14.2565631 L0.25936305,13.2986441 C0.25936305,9.52997841 1.27056574,6.40417931 3.29371685,3.92124678 C5.31686796,1.43831424 7.85158621,0.205222789 10.8971259,0.221174813 C14.166383,0.221174813 16.6705265,1.278794 18.4095565,3.39482999 C20.1485865,5.51006837 21.0181015,8.34873103 21.0181015,11.9092228 L21.0181015,15.3341223 L5.90300757,15.3341223 L5.85751836,15.4545601 C5.94775105,17.506788 6.5107732,19.1857385 7.54882198,20.4906141 C8.58687076,21.7954897 10.0238823,22.4479274 11.8598565,22.4479274 C13.3222226,22.4479274 14.5765315,22.2565031 15.6220376,21.872857 C16.6667979,21.490806 17.6742719,20.938866 18.6452055,20.2210249 L20.3916927,24.0375466 C19.4811629,24.9037415 18.2715974,25.6343442 16.7637421,26.2277595 C15.2558867,26.8211748 13.5086538,27.1186801 11.5242803,27.1186801" id="Fill-5" fill="#4FB6C0" mask="url(#mask-2)"></path>
                </g>
                <path d="M72.1981922,15.5926727 C73.0048113,14.072487 74.0783156,12.8882928 75.4224324,12.0416567 C76.7658036,11.1950205 78.3328216,10.7713108 80.1234863,10.7713108 C82.6752954,10.7713108 84.6344406,11.6030662 86.0001766,13.2650107 C87.365167,14.9269551 88.0487805,17.5060234 88.0487805,21.0029988 L88.0487805,36.6896552 L85.3620379,36.6896552 L85.3620379,20.9238959 C85.3620379,18.1592099 84.8431775,16.1753714 83.8054568,14.9739469 C82.7684815,13.7717392 81.339379,13.1702438 79.5188947,13.1702438 C77.6827552,13.1702438 76.1492842,13.6777556 74.9177363,14.6912127 C73.6876793,15.7046699 72.7804191,17.051769 72.1981922,18.7325102 L72.1981922,36.6896552 L69.5121951,36.6896552 L69.5121951,0 L72.1981922,0 L72.1981922,15.5926727 Z" id="Fill-8" fill="#4FB6C0"></path>
                <path d="M96.9397365,22.6964998 C96.9397365,25.5422542 97.6553862,27.9338989 99.0859331,29.870677 C100.517233,31.8082119 102.512924,32.7769794 105.075266,32.7769794 C107.590952,32.7769794 109.567831,31.8082119 111.006656,29.870677 C112.444728,27.9338989 113.164893,25.5422542 113.164893,22.6964998 L113.164893,21.9472187 C113.164893,19.1476321 112.441718,16.7711244 110.995368,14.8184525 C109.54977,12.8657806 107.560851,11.8894447 105.029363,11.8894447 C102.498627,11.8894447 100.517233,12.8657806 99.0859331,14.8184525 C97.6553862,16.7711244 96.9397365,19.1476321 96.9397365,21.9472187 L96.9397365,22.6964998 Z M94.2276423,21.9578146 C94.2276423,18.3370462 95.2142004,15.3671685 97.1880692,13.0489382 C99.1619379,10.7299511 101.775452,9.57121439 105.029363,9.57121439 C108.298324,9.57121439 110.920115,10.7299511 112.893984,13.0489382 C114.867853,15.3671685 115.853659,18.3370462 115.853659,21.9578146 L115.853659,22.7078526 C115.853659,26.3445148 114.870863,29.3181768 112.904519,31.6288385 C110.938928,33.9395003 108.329177,35.0944528 105.075266,35.0944528 C101.78975,35.0944528 99.1619379,33.9395003 97.1880692,31.6288385 C95.2142004,29.3181768 94.2276423,26.3445148 94.2276423,22.7078526 L94.2276423,21.9578146 Z" id="Fill-10" fill="#4FB6C0"></path>
                <path d="M137.976233,32.1085413 C137.200307,33.5741895 136.156307,34.7038637 134.845722,35.4975638 C133.533648,36.2928051 131.983285,36.6896552 130.19389,36.6896552 C127.644951,36.6896552 125.647054,35.7950087 124.200943,34.0064864 C122.755576,32.2164229 122.03252,29.4392431 122.03252,25.6749468 L122.03252,11.1664168 L124.716241,11.1664168 L124.716241,25.7512345 C124.716241,28.8112182 125.21888,31.0058376 126.224903,32.3350926 C127.230926,33.6651183 128.658421,34.3301311 130.507388,34.3301311 C132.534327,34.3301311 134.151708,33.8585345 135.359531,32.9153414 C136.566609,31.9721482 137.408809,30.6737165 137.886875,29.0208167 L137.886875,11.1664168 L140.569106,11.1664168 L140.569106,36.2041881 L138.199628,36.2041881 L137.976233,32.1085413 Z" id="Fill-12" fill="#4FB6C0"></path>
                <g id="Group-16" transform="translate(146.747967, 9.571214)">
                    <mask id="mask-4" fill="white">
                        <use xlink:href="#path-3"></use>
                    </mask>
                    <g id="Clip-15"></g>
                    <path d="M15.6684566,20.0167592 C15.6684566,18.805203 15.2043005,17.7459886 14.2774712,16.8383184 C13.349159,15.9298507 11.6756761,15.1896768 9.25702244,14.6162015 C6.37643707,13.9454189 4.24992,13.0584864 2.87747122,11.9569991 C1.50428098,10.8555118 0.817685854,9.2985943 0.817685854,7.28624648 C0.817685854,5.3066003 1.59325659,3.63403058 3.14439805,2.26933493 C4.69553951,0.903841679 6.74791024,0.221095052 9.30076878,0.221095052 C12.0167493,0.221095052 14.1692176,0.943721739 15.7574322,2.38897511 C17.3456468,3.83422849 18.1034224,5.6423904 18.0292761,7.81346087 L17.9847883,7.95702909 L15.5134907,7.95702909 C15.5134907,6.53650135 14.9522029,5.29862429 13.8318517,4.2441955 C12.710759,3.19056432 11.2011395,2.66414753 9.30076878,2.66414753 C7.35591024,2.66414753 5.89745171,3.113197 4.92613463,4.01129595 C3.95333463,4.9085973 3.46693463,5.95983568 3.46693463,7.1682015 C3.46693463,8.35981769 3.88586146,9.34485517 4.72445659,10.1233139 C5.56379317,10.9017727 7.2372761,11.5853169 9.74564683,12.173149 C12.60992,12.8614789 14.7564566,13.8026483 16.1808078,14.9966573 C17.6059005,16.1906663 18.3177054,17.8121895 18.3177054,19.8620246 C18.3177054,22.0259166 17.5058029,23.7750561 15.8805151,25.1118357 C14.2544859,26.4502105 12.1064663,27.1186003 9.43497366,27.1186003 C6.50990049,27.1186003 4.21284683,26.3680576 2.54307122,24.8669721 C0.87329561,23.3666843 0.0828956098,21.5776648 0.17187122,19.5023064 L0.216359024,19.3579406 L2.66541268,19.3579406 C2.76995902,21.2187442 3.47805659,22.5698807 4.79192976,23.4113499 C6.10580293,24.2544144 7.65323707,24.6755478 9.43497366,24.6755478 C11.3642615,24.6755478 12.8857444,24.2209151 13.9994224,23.3140426 C15.1116176,22.4055748 15.6684566,21.3064804 15.6684566,20.0167592" id="Fill-14" fill="#4FB6C0" mask="url(#mask-4)"></path>
                </g>
                <path d="M180.300518,11.8894447 C178.285277,11.8894447 176.596832,12.6568901 175.235183,14.1910242 C173.871264,15.7236446 173.076213,17.6467994 172.849271,19.958218 L172.895416,20.0717455 L187.297126,20.0717455 L187.297126,19.3920945 C187.297126,17.2608061 186.667742,15.4784254 185.411242,14.0426817 C184.153986,12.6076949 182.450411,11.8894447 180.300518,11.8894447 M180.641687,35.0944528 C177.566629,35.0944528 175.010511,33.9584216 172.973332,31.6856023 C170.937667,29.4120261 169.918699,26.534484 169.918699,23.0491917 L169.918699,21.7988762 C169.918699,18.2833099 170.929346,15.3671685 172.952151,13.0489382 C174.973444,10.7299511 177.4229,9.57121439 180.300518,9.57121439 C183.313546,9.57121439 185.684328,10.5256017 187.409841,12.4351332 C189.136866,14.3446647 190,16.8899498 190,20.0717455 L190,22.3907326 L172.644267,22.3907326 L172.644267,23.047678 C172.644267,25.8139632 173.379558,28.1276524 174.848626,29.9879887 C176.316181,31.8475681 178.24821,32.7769794 180.641687,32.7769794 C182.336941,32.7769794 183.783315,32.5415991 184.980053,32.0715956 C186.176791,31.6023488 187.198028,30.9279958 188.04679,30.0492935 L189.204948,31.9126571 C188.281296,32.8867225 187.111034,33.6602228 185.695675,34.2339148 C184.27956,34.8083636 182.594897,35.0944528 180.641687,35.0944528" id="Fill-17" fill="#4FB6C0"></path>
            </g>
            <g id="Group-21">
                <mask id="mask-6" fill="white">
                    <use xlink:href="#path-5"></use>
                </mask>
                <g id="Clip-20"></g>
                <polygon id="Fill-19" fill="#4FB6C0" mask="url(#mask-6)" points="20 20.5825964 39.9074074 20.5825964 39.9074074 10.1477236 30.2762963 0.455323636 0 0.455323636 0 40.7098691 20 40.7098691"></polygon>
            </g>
            <path d="M104.020795,77.4485981 L104.037332,77.5046729 C104.059381,78.7819379 103.662503,79.850463 102.846686,80.7102804 C102.030869,81.5700978 100.953236,82 99.6137524,82 C98.2522201,82 97.1428911,81.4548341 96.2857321,80.364486 C95.4285731,79.2741379 95,77.8909741 95,76.2149533 L95,73.7943925 C95,72.1183717 95.4285731,70.7336503 96.2857321,69.6401869 C97.1428911,68.5467235 98.2522201,68 99.6137524,68 C100.975285,68 102.058431,68.4096532 102.863223,69.228972 C103.668015,70.0482907 104.059381,71.1339496 104.037332,72.4859813 L104.020795,72.5420561 L102.458073,72.5420561 C102.458073,71.5887803 102.210024,70.8348937 101.713919,70.2803738 C101.217814,69.7258539 100.517766,69.4485981 99.6137524,69.4485981 C98.7042267,69.4485981 97.9793732,69.8629242 97.4391701,70.6915888 C96.8989671,71.5202534 96.6288696,72.5482805 96.6288696,73.7757009 L96.6288696,76.2149533 C96.6288696,77.4548349 96.8989671,78.4890924 97.4391701,79.317757 C97.9793732,80.1464216 98.7042267,80.5607477 99.6137524,80.5607477 C100.517766,80.5607477 101.217814,80.2850495 101.713919,79.7336449 C102.210024,79.1822402 102.458073,78.4205656 102.458073,77.4485981 L104.020795,77.4485981 Z M117.81154,76.2149533 C117.81154,77.878513 117.355406,79.2585615 116.443124,80.3551402 C115.530843,81.4517189 114.347099,82 112.891858,82 C111.486228,82 110.343825,81.4517189 109.464617,80.3551402 C108.585409,79.2585615 108.145812,77.878513 108.145812,76.2149533 L108.145812,73.7943925 C108.145812,72.1370634 108.585409,70.7570149 109.464617,69.6542056 C110.343825,68.5513964 111.486228,68 112.891858,68 C114.347099,68 115.530843,68.5498387 116.443124,69.6495327 C117.355406,70.7492267 117.81154,72.1308328 117.81154,73.7943925 L117.81154,76.2149533 Z M116.182671,73.7757009 C116.182671,72.5295888 115.885012,71.5077921 115.289686,70.7102804 C114.69436,69.9127686 113.895092,69.5140187 112.891858,69.5140187 C111.943746,69.5140187 111.187198,69.9127686 110.62219,70.7102804 C110.057181,71.5077921 109.774681,72.5295888 109.774681,73.7757009 L109.774681,76.2149533 C109.774681,77.4735265 110.057181,78.5015536 110.62219,79.2990654 C111.187198,80.0965772 111.943746,80.4953271 112.891858,80.4953271 C113.900605,80.4953271 114.701251,80.0981348 115.293821,79.3037383 C115.88639,78.5093418 116.182671,77.4797571 116.182671,76.2149533 L116.182671,73.7757009 Z M131.808994,81.8037383 L130.180125,81.8037383 L124.383995,71.2803738 L124.334385,71.2990654 L124.334385,81.8037383 L122.705515,81.8037383 L122.705515,68.1962617 L124.334385,68.1962617 L130.130515,78.7009346 L130.180125,78.682243 L130.180125,68.1962617 L131.808994,68.1962617 L131.808994,81.8037383 Z M143.805502,78.3738318 C143.805502,77.7507757 143.598795,77.2289741 143.185374,76.8084112 C142.771953,76.3878484 142.038832,76.0342693 140.985987,75.7476636 C139.712651,75.4049827 138.719078,74.9003149 138.005238,74.2336449 C137.291398,73.5669749 136.934484,72.728977 136.934484,71.7196262 C136.934484,70.6604308 137.318959,69.7757045 138.087922,69.0654206 C138.856885,68.3551366 139.853214,68 141.076939,68 C142.394373,68 143.443068,68.4080956 144.223055,69.2242991 C145.003042,70.0405025 145.379249,70.9875336 145.351688,72.0654206 L145.335151,72.1214953 L143.780697,72.1214953 C143.780697,71.3239836 143.547807,70.6791302 143.08202,70.1869159 C142.616232,69.6947016 141.947879,69.4485981 141.076939,69.4485981 C140.266634,69.4485981 139.645134,69.6557612 139.212421,70.0700935 C138.779707,70.4844257 138.563353,71.0249188 138.563353,71.6915888 C138.563353,72.2834921 138.797622,72.7772566 139.266165,73.1728972 C139.734709,73.5685378 140.495391,73.9158864 141.548236,74.2149533 C142.81606,74.5700952 143.780694,75.0934545 144.442167,75.7850467 C145.10364,76.476639 145.434372,77.3333282 145.434372,78.3551402 C145.434372,79.4517189 145.037494,80.33333 144.243726,81 C143.449958,81.66667 142.413666,82 141.134818,82 C139.933141,82 138.870666,81.6324024 137.94736,80.8971963 C137.024053,80.1619901 136.576188,79.1775763 136.603749,77.9439252 L136.620286,77.8878505 L138.17474,77.8878505 C138.17474,78.760129 138.458618,79.4236737 139.026382,79.8785047 C139.594147,80.3333356 140.296952,80.5607477 141.134818,80.5607477 C141.956147,80.5607477 142.606586,80.3644879 143.086154,79.9719626 C143.565722,79.5794373 143.805502,79.0467323 143.805502,78.3738318 Z M159.068018,68.1962617 L159.068018,77.4205607 C159.068018,78.9034342 158.642201,80.0373793 157.790554,80.8224299 C156.938907,81.6074806 155.826822,82 154.454265,82 C153.131319,82 152.057819,81.6059229 151.233734,80.817757 C150.409648,80.0295911 149.997612,78.8972036 149.997612,77.4205607 L149.997612,68.1962617 L151.626481,68.1962617 L151.626481,77.4205607 C151.626481,78.4486033 151.885555,79.2289693 152.403709,79.7616822 C152.921863,80.2943952 153.605375,80.5607477 154.454265,80.5607477 C155.347254,80.5607477 156.067973,80.2943952 156.616445,79.7616822 C157.164916,79.2289693 157.439148,78.4486033 157.439148,77.4205607 L157.439148,68.1962617 L159.068018,68.1962617 Z M165.822377,80.364486 L171.519286,80.364486 L171.519286,81.8037383 L164.193507,81.8037383 L164.193507,68.1962617 L165.822377,68.1962617 L165.822377,80.364486 Z M182.250733,69.6448598 L178.381134,69.6448598 L178.381134,81.8037383 L176.752264,81.8037383 L176.752264,69.6448598 L172.890934,69.6448598 L172.890934,68.1962617 L182.250733,68.1962617 L182.250733,69.6448598 Z M188.203059,81.8037383 L186.565921,81.8037383 L186.565921,68.1962617 L188.203059,68.1962617 L188.203059,81.8037383 Z M202.837178,81.8037383 L201.208309,81.8037383 L195.412179,71.2803738 L195.362569,71.2990654 L195.362569,81.8037383 L193.733699,81.8037383 L193.733699,68.1962617 L195.362569,68.1962617 L201.158699,78.7009346 L201.208309,78.682243 L201.208309,68.1962617 L202.837178,68.1962617 L202.837178,81.8037383 Z M217,80 C216.713362,80.4984449 216.215886,80.9563842 215.507559,81.3738318 C214.799231,81.7912793 213.882829,82 212.758324,82 C211.31962,82 210.130364,81.479756 209.190521,80.4392523 C208.250678,79.3987487 207.780764,78.0529678 207.780764,76.4018692 L207.780764,73.5981308 C207.780764,71.9470322 208.218983,70.6012513 209.095435,69.5607477 C209.971887,68.520244 211.101887,68 212.485468,68 C213.863537,68 214.946683,68.3831737 215.734939,69.1495327 C216.523194,69.9158917 216.925585,70.9034207 216.942121,72.1121495 L216.925585,72.1682243 L215.37113,72.1682243 C215.32152,71.3769431 215.055557,70.7258593 214.573232,70.2149533 C214.090908,69.7040473 213.394994,69.4485981 212.485468,69.4485981 C211.564918,69.4485981 210.823528,69.8380023 210.261276,70.6168224 C209.699023,71.3956425 209.417902,72.3831716 209.417902,73.5794393 L209.417902,76.4018692 C209.417902,77.6105979 209.732097,78.6059151 210.360496,79.3878505 C210.988896,80.1697858 211.788164,80.5607477 212.758324,80.5607477 C213.441847,80.5607477 214.001334,80.457945 214.436804,80.2523364 C214.872274,80.0467279 215.183713,79.8130854 215.37113,79.5514019 L215.37113,76.4579439 L212.733519,76.4579439 L212.733519,75.0093458 L217,75.0093458 L217,80 Z" id="Consulting" fill="#4FB6C0"></path>
        </g>
    </g>
</svg>