<?xml version="1.0" encoding="UTF-8"?>
<svg width="176px" height="54px" viewBox="0 0 176 54" version="1.1" xmlns="http://www.w3.org/2000/svg" xmlns:xlink="http://www.w3.org/1999/xlink">
    <!-- Generator: Sketch 49.3 (51167) - http://www.bohemiancoding.com/sketch -->
    <title>logo</title>
    <desc>Created with Sketch.</desc>
    <defs>
        <polygon id="path-1" points="0.011288 0.0480808081 16.3532656 0.0480808081 16.3532656 21.9950465 0.011288 21.9950465"></polygon>
    </defs>
    <g id="logo" stroke="none" stroke-width="1" fill="none" fill-rule="evenodd">
        <g>
            <path d="M19.5159927,27.2719924 L13.0572646,39.3117643 C11.7003552,41.6354523 11.5957713,44.5890174 13.0572646,47.0767138 C15.2555384,50.8156812 20.1441667,52.1086612 23.9782403,49.9645341 C27.8109732,47.8204071 29.1363734,43.0514386 26.93877,39.3117643 L20.7870897,27.7958296 L20.5866371,27.454381 L20.4793716,27.2719924 C20.2661813,26.9093359 19.729183,26.9093359 19.5159927,27.2719924" id="Fill-1" fill="#71BE44"></path>
            <path d="M52.5924043,23.2868533 C50.9887386,21.3060924 48.9544461,20.0331918 46.4909248,19.4653783 C47.2752809,18.2722073 47.6646627,16.9660283 47.6646627,15.5447612 C47.6646627,13.5369616 46.9495145,11.8231216 45.5171209,10.4025479 C44.0847272,8.98197417 42.3573262,8.27134067 40.3321216,8.27134067 C38.4991611,8.27134067 36.9143703,8.8599532 35.5777493,10.0337118 C34.4515481,7.34370396 32.6605318,5.16535228 30.2074966,3.49935003 C27.7530632,1.83265448 25.0176038,1 21.9990213,1 C17.9514083,1 14.4945091,2.42057371 11.6297219,5.26102782 C8.76493467,8.10078863 7.33324012,11.529162 7.33324012,15.5447612 C7.33324012,15.8297079 7.352115,16.2359823 7.39056383,16.7670509 C5.17521226,17.7882832 3.3897885,19.3371176 2.03359347,21.4114741 C0.678097514,23.4844441 0,25.7730306 0,28.2723806 C0,31.7763238 1.25552901,34.7734639 3.76658702,37.263801 C5.74215771,39.2237629 8.03650414,40.4093076 10.6454319,40.8273681 L19.8354009,24.9334431 C20.1394962,24.4051478 20.9042783,24.4051478 21.2083736,24.9334431 L30.4158193,40.8578733 C30.443083,40.9043245 30.4675505,40.9521622 30.4941151,41 L30.5898876,41 C30.6388225,40.9064044 30.6870583,40.8100355 30.7401876,40.7185198 L36.4026514,30.9256435 C36.589303,30.6018719 37.0597768,30.6018719 37.2471275,30.9256435 L42.9095912,40.7185198 C42.9634196,40.8100355 43.0053638,40.9064044 43.0535996,41 L44.0001398,41 C47.0361991,41 49.6283492,39.9343964 51.7772891,37.8038825 C53.92553,35.6740619 55,33.1026085 55,30.0902158 C54.9993009,27.5347084 54.1974681,25.2655343 52.5924043,23.2868533" id="Fill-3" fill="#0579BA"></path>
            <path d="M36.167466,33.1589329 L31.7270217,40.1828305 C30.7939663,41.5374489 30.7220199,43.2602284 31.7270217,44.7114136 C33.2386463,46.8922151 36.5991446,47.6473143 39.2349324,46.3952982 C41.8699707,45.1459645 42.7812923,42.3643026 41.270417,40.1828305 L37.0413154,33.4640574 L36.9034181,33.2642176 L36.8299727,33.1589329 C36.6830821,32.9470224 36.3136072,32.9470224 36.167466,33.1589329" id="Fill-5" fill="#71BE44"></path>
            <g id="Group-9" transform="translate(66.000000, 0.000000)">
                <mask id="mask-2" fill="white">
                    <use xlink:href="#path-1"></use>
                </mask>
                <g id="Clip-8"></g>
                <path d="M12.0930928,16.5639758 L12.0930928,11.0360566 C11.3943792,10.0016323 9.8632912,9.2584404 8.4651568,9.2584404 C6.0359248,9.2584404 4.3718832,11.1013091 4.3718832,13.7835313 C4.3718832,16.500097 6.0359248,18.3422788 8.4651568,18.3422788 C9.8632912,18.3422788 11.3943792,17.5990869 12.0930928,16.5639758 Z M12.0930928,21.6076525 L12.0930928,19.6033697 C10.8286192,21.1543192 9.0973936,21.9950465 7.1334992,21.9950465 C3.1067024,21.9950465 0.011288,19.0215919 0.011288,13.7835313 C0.011288,8.70825859 3.0402256,5.6063596 7.1334992,5.6063596 C9.031624,5.6063596 10.8286192,6.38183434 12.0930928,7.99734949 L12.0930928,0.0454707071 L16.3532656,0.0454707071 L16.3532656,21.6076525 L12.0930928,21.6076525 Z" id="Fill-7" fill="#047BC0" mask="url(#mask-2)"></path>
            </g>
            <path d="M95.1302526,8.28167302 C92.5611315,8.28167302 91.4562298,10.0183982 91.2924638,11.5325007 L99.032304,11.5325007 C98.9030879,10.0814299 97.8617577,8.28167302 95.1302526,8.28167302 M87,12.9835715 C87,8.56598634 90.3824228,5 95.1302526,5 C99.8456057,5 103,8.40706592 103,13.363103 L103,14.30992 L91.3249406,14.30992 C91.6179227,16.1713675 93.1795724,17.7176564 95.845433,17.7176564 C97.1790542,17.7176564 99.0005182,17.1805457 100.008681,16.2337287 L101.86193,18.8850844 C100.300972,20.2731235 97.8292809,21 95.3900669,21 C90.6097603,21 87,17.8752357 87,12.9835715" id="Fill-10" fill="#047BC0"></path>
            <path d="M106,18.6335289 L107.807172,15.7299246 C108.990773,16.80285 111.323757,17.8435876 113.295725,17.8435876 C115.102898,17.8435876 115.957604,17.1810562 115.957604,16.2341995 C115.957604,13.7416597 106.558631,15.7929589 106.558631,9.79664711 C106.558631,7.24040235 108.859494,5 113.065988,5 C115.727867,5 117.863235,5.88315172 119.44067,7.08147527 L117.764776,9.92271584 C116.811612,8.97585918 115.004439,8.15507125 113.065988,8.15507125 C111.554192,8.15507125 110.568208,8.78675608 110.568208,9.63839061 C110.568208,11.8794635 120,9.98575021 120,16.1396479 C120,18.9487008 117.50222,21 113.098808,21 C110.337772,21 107.675196,20.1161777 106,18.6335289" id="Fill-12" fill="#047BC0"></path>
            <polygon id="Fill-14" fill="#047BC0" points="124 22 124 18.8522282 131.174439 9.67638907 124 9.67638907 124 6 136.867839 6 136.867839 9.0140337 129.561939 18.3222032 137 18.3222032 137 22"></polygon>
            <path d="M141,12.9832355 C141,8.31265717 144.623075,5 149.590274,5 C152.913149,5 154.925414,6.35658005 156,7.74467728 L153.214062,10.2063705 C152.44324,9.13411567 151.268112,8.56546521 149.791358,8.56546521 C147.207216,8.56546521 145.395322,10.3324392 145.395322,12.9832355 C145.395322,15.635373 147.207216,17.4338642 149.791358,17.4338642 C151.268112,17.4338642 152.44324,16.8021794 153.214062,15.7614417 L156,18.223135 C154.925414,19.6105616 152.913149,21 149.590274,21 C144.623075,21 141,17.6866723 141,12.9832355" id="Fill-16" fill="#047BC0"></path>
            <polygon id="Fill-18" fill="#047BC0" points="159 22 159 18.8522282 166.175211 9.67638907 159 9.67638907 159 6 171.868524 6 171.868524 9.0140337 164.561838 18.3222032 172 18.3222032 172 22"></polygon>
            <path d="M73.7327948,42.3333125 L73.7327948,33.5263125 L71,33.5263125 L71,29.631001 L73.7327948,29.631001 L73.7327948,25 L78.0711899,25 L78.0711899,29.631001 L81.4193646,29.631001 L81.4193646,33.5263125 L78.0711899,33.5263125 L78.0711899,41.1405621 C78.0711899,42.2283121 78.6177489,43.0346882 79.573893,43.0346882 C80.2233493,43.0346882 80.8387293,42.7896871 81.0772642,42.5083133 L82,45.9122501 C81.3498755,46.5086253 80.1886048,47 78.3785458,47 C75.3383952,47 73.7327948,45.3858752 73.7327948,42.3333125" id="Fill-20" fill="#71BE44"></path>
            <path d="M96.3499713,38.9826402 C96.3499713,36.3203457 94.8004211,34.0121904 91.9817416,34.0121904 C89.1995789,34.0121904 87.6493397,36.3203457 87.6493397,38.9826402 C87.6493397,41.6810431 89.1995789,43.988504 91.9817416,43.988504 C94.8004211,43.988504 96.3499713,41.6810431 96.3499713,38.9826402 M83,38.9826402 C83,34.1191266 86.3808995,30 91.9817416,30 C97.6191005,30 101,34.1191266 101,38.9826402 C101,43.8461538 97.6191005,48 91.9817416,48 C86.3808995,48 83,43.8461538 83,38.9826402" id="Fill-22" fill="#71BE44"></path>
            <polygon id="Fill-24" fill="#047BC0" points="105 47 105 43.6564487 112.726552 33.9066613 105 33.9066613 105 30 118.858572 30 118.858572 33.203118 110.989898 43.0926503 119 43.0926503 119 47"></polygon>
            <path d="M122,51.4552368 L123.98679,48.2391981 C125.206545,49.7227791 127.263562,50.3235396 129.041036,50.3235396 C131.899859,50.3235396 133.573699,48.3442793 133.573699,45.9405461 L133.573699,44.1735223 C132.422806,45.4469409 130.400562,46.753543 127.64742,46.753543 C123.952018,46.753543 122.209315,44.7037677 122.209315,41.3812651 L122.209315,30 L126.636298,30 L126.636298,39.6142413 C126.636298,41.9820256 127.856053,42.7597649 129.738526,42.7597649 C131.446457,42.7597649 132.806665,41.805738 133.573699,40.8157622 L133.573699,30 L138,30 L138,45.9405461 C138,51.0667128 134.409596,54 129.041036,54 C126.217667,54 123.952018,53.1870031 122,51.4552368" id="Fill-26" fill="#047BC0"></path>
            <path d="M141,45.3377054 L142.936639,42.0712908 C144.203857,43.2781421 146.703857,44.4495795 148.817493,44.4495795 C150.753444,44.4495795 151.668733,43.7038037 151.668733,42.6386081 C151.668733,39.8339634 141.598485,42.1421187 141.598485,35.3968058 C141.598485,32.5213332 144.063361,30 148.570248,30 C151.422865,30 153.711433,30.9943677 155.401515,32.3435692 L153.606061,35.5391559 C152.584711,34.473266 150.648072,33.5504205 148.570248,33.5504205 C146.951102,33.5504205 145.893939,34.2607823 145.893939,35.2190417 C145.893939,37.740375 156,35.6092894 156,42.5330607 C156,45.6925392 153.32438,48 148.606061,48 C145.648072,48 142.795455,47.0056323 141,45.3377054" id="Fill-28" fill="#047BC0"></path>
            <polygon id="Fill-30" fill="#047BC0" points="170.273454 48 165.663476 41.3071374 163.574051 43.5380916 163.574051 48 159 48 159 24 163.574051 24 163.574051 38.3569292 170.165672 30.6203742 175.783731 30.6203742 168.905395 38.5004985 176 48"></polygon>
        </g>
    </g>
</svg>